<svg xmlns="http://www.w3.org/2000/svg" xmlns:xlink="http://www.w3.org/1999/xlink" width="500" zoomAndPan="magnify" viewBox="0 0 375 374.999991" height="500" preserveAspectRatio="xMidYMid meet" version="1.0"><defs><clipPath id="59829031b0"><path d="M 3.574219 3.574219 L 371.074219 3.574219 L 371.074219 371.074219 L 3.574219 371.074219 Z M 3.574219 3.574219 " clip-rule="nonzero"/></clipPath></defs><path fill="#696cff" d="M 187.570312 9.515625 C 89.222656 9.515625 9.515625 89.238281 9.515625 187.566406 C 9.515625 248.5625 40.171875 302.378906 86.917969 334.457031 L 86.933594 334.472656 C 102.21875 342.71875 118.890625 348.714844 136.488281 352.023438 C 136.503906 352.039062 136.515625 352.039062 136.515625 352.039062 C 146.941406 354.007812 157.671875 355.035156 168.652344 355.035156 C 264 355.035156 341.574219 277.464844 341.574219 182.113281 C 341.574219 179.277344 343.882812 176.96875 346.71875 176.96875 C 349.554688 176.96875 351.863281 179.277344 351.863281 182.113281 C 351.863281 260.511719 302.371094 327.5625 232.984375 353.667969 C 232.964844 353.683594 232.9375 353.683594 232.910156 353.683594 C 214.871094 360.476562 195.496094 364.488281 175.28125 365.210938 C 179.339844 365.488281 183.441406 365.636719 187.570312 365.636719 C 285.917969 365.636719 365.621094 285.914062 365.621094 187.570312 C 365.621094 89.238281 285.917969 9.515625 187.570312 9.515625 Z M 254.382812 217.277344 L 217.265625 217.277344 L 217.265625 254.382812 C 217.265625 269.449219 203.976562 281.664062 187.570312 281.664062 C 171.164062 281.664062 157.875 269.449219 157.875 254.382812 L 157.875 217.277344 L 120.757812 217.277344 C 105.691406 217.277344 93.472656 203.972656 93.472656 187.566406 C 93.472656 171.175781 105.691406 157.871094 120.757812 157.871094 L 157.875 157.871094 L 157.875 120.753906 C 157.875 105.6875 171.164062 93.472656 187.570312 93.472656 C 203.976562 93.472656 217.265625 105.6875 217.265625 120.753906 L 217.265625 157.871094 L 254.382812 157.871094 C 269.453125 157.871094 281.667969 171.175781 281.667969 187.566406 C 281.667969 203.972656 269.453125 217.277344 254.382812 217.277344 Z M 342.882812 137.058594 C 337.78125 142.160156 329.519531 142.160156 324.417969 137.058594 C 319.316406 131.941406 319.316406 123.679688 324.417969 118.578125 C 329.519531 113.476562 337.78125 113.476562 342.882812 118.578125 C 347.996094 123.679688 347.996094 131.957031 342.882812 137.058594 Z M 342.882812 137.058594 " fill-opacity="1" fill-rule="nonzero"/><g clip-path="url(#59829031b0)"><path fill="#696cff" d="M 187.570312 3.636719 C 86.152344 3.636719 3.636719 86.148438 3.636719 187.566406 C 3.636719 229.390625 17.664062 268.011719 41.285156 298.925781 C 41.285156 298.9375 41.285156 298.9375 41.285156 298.9375 C 41.300781 298.957031 41.3125 298.984375 41.34375 299 L 41.359375 299.015625 C 54.398438 313.214844 69.789062 325.242188 86.914062 334.457031 L 86.929688 334.472656 C 102.21875 342.71875 118.886719 348.714844 136.484375 352.023438 C 66.394531 330.210938 15.382812 264.730469 15.382812 187.570312 C 15.382812 92.632812 92.621094 15.382812 187.570312 15.382812 C 282.507812 15.382812 359.757812 92.632812 359.757812 187.570312 C 359.757812 266.804688 305.953125 333.707031 232.980469 353.671875 C 232.964844 353.683594 232.9375 353.683594 232.90625 353.683594 C 214.871094 360.476562 195.496094 364.492188 175.28125 365.210938 L 175.265625 365.210938 C 173.074219 365.285156 170.871094 365.328125 168.648438 365.328125 C 152.214844 365.328125 136.28125 363.15625 121.105469 359.082031 C 141.734375 367.105469 164.152344 371.503906 187.570312 371.503906 C 288.988281 371.503906 371.5 288.988281 371.5 187.570312 C 371.5 86.152344 288.988281 3.636719 187.570312 3.636719 Z M 187.570312 3.636719 " fill-opacity="1" fill-rule="nonzero"/></g></svg>